<?xml version="1.0"?>
<svg xmlns="http://www.w3.org/2000/svg" id="Layer_1" enable-background="new 0 0 512 512" height="512px" viewBox="0 0 512 512" width="512px" class=""><g><g><g><g><g><path d="m498.654 512c-2.766 0-5.516-.859-7.839-2.543l-56.603-41.06h-189.168c-22.08 0-40.043-17.964-40.043-40.043v-231.362c0-7.372 5.976-13.348 13.348-13.348h253.608c22.08 0 40.043 17.963 40.043 40.043v274.965c0 5.018-2.814 9.611-7.283 11.891-1.914.976-3.993 1.457-6.063 1.457z" fill="#ff435b" data-original="#FF435B" class="active-path" style="fill:#E3E9ED" data-old_color="#ff435b"/></g></g></g><g><g><g><path d="m15.003 418.001c-3.91 0-7.745-1.53-10.609-4.394-4.141-4.141-5.494-10.314-3.463-15.807l31.039-83.98c-20.942-32.774-31.97-70.53-31.97-109.698 0-112.553 91.569-204.122 204.122-204.122s204.122 91.568 204.122 204.122c0 112.553-91.569 204.121-204.122 204.121-33.437 0-66.365-8.203-95.691-23.783l-88.229 32.61c-1.696.626-3.455.931-5.199.931z" fill="#7dd5f4" data-original="#7DD5F4" class="" style="fill:#1273EB" data-old_color="#7dd5f4"/></g></g></g><path d="m205.001.011v408.22c112.149-.477 203.242-91.851 203.242-204.11 0-112.258-91.093-203.633-203.242-204.11z" fill="#4793ff" data-original="#4793FF" class="" style="fill:#04458F" data-old_color="#4793ff"/><g><path d="m205.001 293.001c-8.284 0-15-6.716-15-15v-148.001c0-8.284 6.716-15 15-15s15 6.716 15 15v148c0 8.285-6.716 15.001-15 15.001z" fill="#fff4f4" data-original="#FFF4F4" class=""/></g><g><path d="m265.001 236.82c-8.284 0-15-6.716-15-15v-35.639c0-8.284 6.716-15 15-15s15 6.716 15 15v35.639c0 8.284-6.715 15-15 15z" fill="#f6efea" data-original="#F6EFEA" class="" style="fill:#F6EFEA"/></g><g><path d="m145 236.82c-8.284 0-15-6.716-15-15v-35.639c0-8.284 6.716-15 15-15s15 6.716 15 15v35.639c0 8.284-6.716 15-15 15z" fill="#fff4f4" data-original="#FFF4F4" class=""/></g><g><path d="m325.001 260.819c-8.284 0-15-6.716-15-15v-83.637c0-8.284 6.716-15 15-15s15 6.716 15 15v83.637c0 8.284-6.715 15-15 15z" fill="#f6efea" data-original="#F6EFEA" class="" style="fill:#F6EFEA"/></g><g><path d="m85 260.819c-8.284 0-15-6.716-15-15v-83.637c0-8.284 6.716-15 15-15s15 6.716 15 15v83.637c0 8.284-6.716 15-15 15z" fill="#fff4f4" data-original="#FFF4F4" class=""/></g><path d="m205.001 115v178c8.284 0 15-6.716 15-15v-148c0-8.284-6.716-15-15-15z" fill="#f6efea" data-original="#F6EFEA" class="" style="fill:#F6EFEA"/></g></g> </svg>
