<?xml version="1.0"?>
<svg xmlns="http://www.w3.org/2000/svg" height="512px" viewBox="0 0 512 512" width="512px" class=""><g><g>
    <path d="m487.398438 508.523438-92.230469-76.859376h-179.335938c-48.136719 0-87.300781-39.160156-87.300781-87.296874v-128.535157c0-48.292969 39.085938-87.300781 87.300781-87.300781h208.867188c48.296875 0 87.300781 39.085938 87.300781 87.300781v281.167969c0 8.308594-6.75 15-14.996094 15-3.445312 0-6.859375-1.1875-9.605468-3.476562zm0 0" fill="#3ab4fb" data-original="#FFFFFF" class="" style="fill:#FFFFFF" data-old_color="#3ab4fb"/>
    <path d="m424.699219 128.53125h-104.429688v303.140625h74.902344l92.226563 76.847656c2.75 2.289063 6.160156 3.480469 9.601562 3.480469 8.25 0 15-6.691406 15-15v-281.171875c0-48.207031-39-87.296875-87.300781-87.296875zm0 0" fill="#1d9cfd" data-original="#E3E3E3" class="" style="fill:#E3E3E3" data-old_color="#1d9cfd"/>
    <path d="m416.667969 329.367188h-192.800781c-8.285157 0-15 6.714843-15 15 0 8.285156 6.714843 15 15 15h192.800781c8.28125 0 15-6.714844 15-15 0-8.285157-6.71875-15-15-15zm0 0" fill="#1d9cfd" data-original="#E3E3E3" class="" style="fill:#E3E3E3" data-old_color="#1d9cfd"/>
    <g fill="#0084ff">
      <path d="m431.671875 344.371094c0 8.277344-6.722656 15-15 15h-96.402344v-30h96.402344c8.277344 0 15 6.707031 15 15zm0 0" data-original="#ABABAB" class="" style="fill:#ABABAB" data-old_color="#0084FF"/>
      <path d="m416.667969 265.101562h-192.800781c-8.285157 0-15 6.714844-15 15 0 8.28125 6.714843 15 15 15h192.800781c8.28125 0 15-6.71875 15-15 0-8.285156-6.71875-15-15-15zm0 0" data-original="#ABABAB" class="" style="fill:#ABABAB" data-old_color="#0084FF"/>
      <path d="m416.667969 200.832031h-192.800781c-8.285157 0-15 6.71875-15 15 0 8.285157 6.714843 15 15 15h192.800781c8.28125 0 15-6.714843 15-15 0-8.28125-6.71875-15-15-15zm0 0" data-original="#ABABAB" class="" style="fill:#ABABAB" data-old_color="#0084FF"/>
    </g>
    <path d="m14.996094 383.46875c-8.246094 0-14.996094-6.695312-14.996094-15v-281.167969c0-48.214843 39.003906-87.300781 87.300781-87.300781h208.867188c48.214843 0 87.300781 39.003906 87.300781 87.300781v128.535157c0 48.136718-39.164062 87.296874-87.300781 87.296874h-179.335938l-92.230469 76.855469c-2.746093 2.292969-6.160156 3.480469-9.605468 3.480469zm0 0" fill="#eff6fe" data-original="#1273EB" class="" style="fill:#1273EB" data-old_color="#eff6fe"/>
    <path d="m166.566406 119.417969c0-6.71875 2.617188-13.03125 7.367188-17.785157 4.75-4.75 11.066406-7.367187 17.800781-7.367187 13.875 0 25.167969 11.292969 25.167969 25.167969 0 13.878906-11.292969 25.167968-25.167969 25.167968-8.285156 0-15 6.714844-15 15v16.0625c0 8.285157 6.714844 15 15 15 8.28125 0 15-6.714843 15-15v-3.136718c23.152344-6.550782 40.164063-27.871094 40.164063-53.09375 0-30.421875-24.746094-55.167969-55.179688-55.167969-14.730469 0-28.582031 5.738281-39 16.152344-10.414062 10.417969-16.152344 24.269531-16.152344 38.996093v.015626c0 8.285156 6.714844 14.992187 15 14.992187s15-6.722656 15-15.003906zm0 0" fill="#ff7579" data-original="#FFFFFF" class="" style="fill:#FFFFFF" data-old_color="#ff7579"/>
    <path d="m296.171875 0h-104.441406v303.128906h104.441406c48.128906 0 87.296875-39.160156 87.296875-87.300781v-128.527344c0-48.300781-39.089844-87.300781-87.296875-87.300781zm0 0" fill="#d9e4ef" data-original="#04458F" class="" style="fill:#04458F" data-old_color="#d9e4ef"/>
    <path d="m206.734375 223.867188c0 8.285156-6.71875 15-15 15-8.285156 0-15-6.714844-15-15 0-8.285157 6.714844-15 15-15 8.28125 0 15 6.714843 15 15zm0 0" fill="#ff7579" data-original="#FFFFFF" class="" style="fill:#FFFFFF" data-old_color="#ff7579"/>
    <path d="m206.730469 223.871094c0 8.277344-6.71875 15-15 15v-30c8.28125 0 15 6.71875 15 15zm0 0" fill="#fe4a60" data-original="#E3E9ED" class="active-path" style="fill:#E3E9ED" data-old_color="#fe4a60"/>
    <path d="m246.898438 119.429688c0 25.230468-17.007813 46.550781-40.167969 53.101562v3.140625c0 8.277344-6.710938 15-15 15v-46.070313c13.878906 0 25.167969-11.292968 25.167969-25.171874 0-13.871094-11.289063-25.160157-25.167969-25.160157v-30c30.429687.011719 55.167969 24.742188 55.167969 55.160157zm0 0" fill="#fe4a60" data-original="#E3E9ED" class="active-path" style="fill:#E3E9ED" data-old_color="#fe4a60"/>
  </g></g> </svg>
