<!DOCTYPE svg PUBLIC "-//W3C//DTD SVG 20010904//EN" "http://www.w3.org/TR/2001/REC-SVG-20010904/DTD/svg10.dtd">
<svg version="1.0" xmlns="http://www.w3.org/2000/svg" width="417px" height="586px" viewBox="0 0 4170 5860" preserveAspectRatio="xMidYMid meet">
<g id="layer101" fill="#0c5091" stroke="none">
 <path d="M1855 5834 c-49 -5 -166 -23 -220 -34 -155 -33 -203 -46 -310 -81 -66 -22 -139 -49 -162 -60 -24 -10 -45 -19 -48 -19 -7 0 -96 -45 -192 -96 -119 -64 -231 -152 -368 -289 -202 -201 -310 -360 -400 -587 -30 -78 -73 -247 -77 -308 l-3 -45 630 0 630 0 3 38 3 37 740 0 739 0 0 -145 0 -145 -740 0 -740 0 0 40 0 40 -643 0 -644 0 -11 -37 c-11 -37 -35 -220 -36 -278 l-1 -30 665 0 665 0 3 43 3 42 740 0 739 0 0 -130 0 -130 -740 0 -740 0 0 45 0 45 -670 0 -670 0 2 -172 3 -173 668 -3 667 -2 0 40 0 40 740 0 740 0 0 -120 0 -120 -740 0 -740 0 0 40 0 40 -670 0 -670 0 0 -170 0 -170 670 0 670 0 0 40 0 40 740 0 740 0 0 -135 0 -135 -740 0 -740 0 0 40 0 40 -670 0 -670 0 2 -172 3 -173 668 -3 667 -2 0 42 0 43 741 -3 742 -2 -7 -62 c-3 -33 -6 -87 -6 -119 l0 -59 -735 0 -735 0 0 40 0 40 -670 0 -670 0 0 -170 0 -170 670 0 670 0 0 45 0 45 735 0 735 0 0 -805 0 -805 658 2 657 3 3 1630 c3 1176 0 1656 -8 1725 -39 323 -122 603 -260 876 -109 215 -210 356 -369 514 -241 240 -538 398 -866 460 -76 14 -215 37 -235 39 -39 4 -500 8 -535 5z"/>
 <path d="M10 990 l0 -990 660 0 660 0 0 990 0 990 -660 0 -660 0 0 -990z"/>
 <path d="M1890 1736 c-96 -33 -157 -72 -236 -150 -94 -94 -157 -210 -182 -334 -9 -46 -9 -213 0 -267 17 -103 82 -228 166 -317 79 -84 140 -125 242 -163 67 -25 88 -28 195 -28 106 0 128 3 194 27 95 36 163 80 232 153 98 102 143 190 174 336 24 113 17 217 -23 342 -53 167 -193 321 -347 382 -95 38 -122 43 -236 42 -91 0 -127 -5 -179 -23z"/>
 </g>

</svg>