<?xml version="1.0" encoding="iso-8859-1"?>
<!-- Generator: Adobe Illustrator 19.0.0, SVG Export Plug-In . SVG Version: 6.00 Build 0)  -->
<svg version="1.1" id="Capa_1" xmlns="http://www.w3.org/2000/svg" xmlns:xlink="http://www.w3.org/1999/xlink" x="0px" y="0px"
	 viewBox="0 0 468.293 468.293" style="enable-background:new 0 0 468.293 468.293;" xml:space="preserve">
<path style="fill:#64798A;" d="M234.144,105.227L77.924,393.362h312.439L234.144,105.227z M234.144,144.532L358.9,374.63H109.388
	L234.144,144.532z"/>
<path style="fill:#E1E6E9;" d="M234.146,0c-68.995,0-124.878,55.883-124.878,124.878c0,20.479,4.933,39.773,13.674,56.819
	c20.605,40.398,62.689,68.059,111.204,68.059c48.515,0,90.537-27.662,111.204-68.059c8.742-17.046,13.674-36.34,13.674-56.819
	C359.024,55.883,303.079,0,234.146,0z"/>
<path style="fill:#E56353;" d="M345.35,181.697c-20.667,40.398-62.689,68.059-111.204,68.059
	c-48.515,0-90.599-27.661-111.204-68.059c28.722-27.973,67.871-45.268,111.204-45.268S316.628,153.724,345.35,181.697z"/>
<circle style="fill:#D15241;" cx="234.14" cy="87.415" r="49.951"/>
<path style="fill:#E1E6E9;" d="M93.659,280.976C41.912,280.976,0,322.887,0,374.634c0,15.36,3.7,29.829,10.256,42.614
	c15.454,30.299,47.017,51.044,83.403,51.044c36.386,0,67.902-20.745,83.403-51.044c6.556-12.785,10.256-27.255,10.256-42.614
	C187.317,322.887,145.358,280.976,93.659,280.976z"/>
<path style="fill:#27A2DB;" d="M177.061,417.249c-15.5,30.298-47.016,51.044-83.403,51.044c-36.386,0-67.949-20.746-83.403-51.044
	c21.542-20.979,50.903-33.951,83.403-33.951S155.52,396.269,177.061,417.249z"/>
<circle style="fill:#2D93BA;" cx="93.652" cy="346.537" r="37.463"/>
<path style="fill:#E1E6E9;" d="M374.634,280.976c-51.746,0-93.659,41.912-93.659,93.659c0,15.36,3.7,29.829,10.256,42.614
	c15.453,30.299,47.017,51.044,83.403,51.044c36.386,0,67.902-20.745,83.403-51.044c6.556-12.785,10.256-27.255,10.256-42.614
	C468.293,322.887,426.334,280.976,374.634,280.976z"/>
<path style="fill:#44C4A1;" d="M458.037,417.249c-15.5,30.298-47.016,51.044-83.403,51.044c-36.386,0-67.949-20.746-83.403-51.044
	c21.542-20.979,50.903-33.951,83.403-33.951C407.134,383.297,436.496,396.269,458.037,417.249z"/>
<circle style="fill:#3EA69B;" cx="374.634" cy="346.537" r="37.463"/>
<g>
</g>
<g>
</g>
<g>
</g>
<g>
</g>
<g>
</g>
<g>
</g>
<g>
</g>
<g>
</g>
<g>
</g>
<g>
</g>
<g>
</g>
<g>
</g>
<g>
</g>
<g>
</g>
<g>
</g>
</svg>
