<svg id="Capa_1" enable-background="new 0 0 512 512" height="512" viewBox="0 0 512 512" width="512" xmlns="http://www.w3.org/2000/svg"><path d="m427.14 109.815v351.709c0 27.831-22.6 50.475-50.38 50.475h-277.88c-27.78 0-50.38-22.645-50.38-50.475v-351.709c0-27.831 22.6-50.465 50.38-50.465h277.88c27.78 0 50.38 22.634 50.38 50.465z" fill="#f3eee9"/><path d="m427.14 109.815v351.709c0 27.831-22.6 50.475-50.38 50.475h-138.94v-452.649h138.94c27.78 0 50.38 22.634 50.38 50.465z" fill="#e9dfda"/><path d="m309.25 59.499c0 13.641-11.02 24.693-24.61 24.693h-93.64c-13.59 0-24.61-11.052-24.61-24.693 0-6.825 2.76-12.991 7.21-17.458 4.45-4.477 10.61-7.235 17.4-7.235h12.12c0-19.227 15.54-34.806 34.7-34.806s34.69 15.579 34.69 34.806h12.13c13.59 0 24.61 11.053 24.61 24.693z" fill="#ffdd7d"/><path d="m463.5 188.561v186.323l-36.36 19.986-36.37-19.986v-186.323l36.37-19.986z" fill="#ffae3b"/><path d="m463.5 188.561v186.323l-36.36 19.986v-226.295z" fill="#ff7127"/><path d="m463.5 374.884v8.754c0 9.373-2.53 18.587-7.32 26.642l-20.45 34.387c-1.8 3.028-5.07 4.887-8.59 4.887-3.53 0-6.8-1.859-8.6-4.887l-20.45-34.387c-4.79-8.055-7.32-17.268-7.32-26.642v-8.754z" fill="#07485e"/><path d="m463.5 158.232v30.329h-72.73v-30.329c0-20.096 16.31-36.435 36.37-36.435 20.05 0 36.36 16.339 36.36 36.435z" fill="#ff7127"/><g fill="#07485e"><path d="m344.06 180.966c0 8.284-6.71 14.99-15 14.99h-187.93c-8.28 0-15-6.705-15-14.99 0-8.274 6.72-14.99 15-14.99h187.93c8.29.001 15 6.716 15 14.99z"/><path d="m304.22 230.932c0 8.274-6.72 14.99-15 14.99h-148.09c-8.28 0-15-6.715-15-14.99 0-8.284 6.72-14.99 15-14.99h148.09c8.28 0 15 6.706 15 14.99z"/><path d="m321.5 280.888c0 8.284-6.71 14.99-15 14.99h-165.37c-8.28 0-15-6.705-15-14.99 0-8.274 6.72-14.99 15-14.99h165.37c8.29 0 15 6.716 15 14.99z"/><path d="m141.132 345.844h54.388c8.284 0 15-6.711 15-14.99s-6.716-14.99-15-14.99h-54.388c-8.284 0-15 6.711-15 14.99s6.716 14.99 15 14.99z"/><path d="m344.06 380.82c0 8.274-6.71 14.99-15 14.99h-187.93c-8.28 0-15-6.715-15-14.99 0-8.284 6.72-14.99 15-14.99h187.93c8.29 0 15 6.705 15 14.99z"/><path d="m304.22 430.776c0 8.284-6.72 14.99-15 14.99h-148.09c-8.28 0-15-6.705-15-14.99 0-8.274 6.72-14.99 15-14.99h148.09c8.28 0 15 6.715 15 14.99z"/></g><path d="m304.22 430.776c0 8.284-6.72 14.99-15 14.99h-51.4v-29.979h51.4c8.28-.001 15 6.714 15 14.989z" fill="#002438"/><path d="m289.22 245.922h-51.4v-29.98h51.4c8.28 0 15 6.705 15 14.99 0 8.275-6.72 14.99-15 14.99z" fill="#002438"/><path d="m284.64 84.192h-46.82v-84.192c19.16 0 34.69 15.579 34.69 34.806h12.13c13.59 0 24.61 11.053 24.61 24.693s-11.02 24.693-24.61 24.693z" fill="#ffae3b"/><path d="m306.5 295.878h-68.68v-29.979h68.68c8.29 0 15 6.715 15 14.99 0 8.283-6.71 14.989-15 14.989z" fill="#002438"/><path d="m344.06 380.82c0 8.274-6.71 14.99-15 14.99h-91.24v-29.98h91.24c8.29 0 15 6.705 15 14.99z" fill="#002438"/><path d="m329.06 195.956h-91.24v-29.98h91.24c8.29 0 15 6.715 15 14.99 0 8.285-6.71 14.99-15 14.99z" fill="#002438"/><path d="m463.5 158.232v30.329h-36.36v-66.764c20.05 0 36.36 16.339 36.36 36.435z" fill="#ff1f3e"/><path d="m427.14 374.884h36.36v8.754c0 9.373-2.53 18.587-7.32 26.642l-20.45 34.387c-1.8 3.028-5.07 4.887-8.59 4.887z" fill="#002438"/></svg>