<svg id="Capa_1" enable-background="new 0 0 512 512" height="512" viewBox="0 0 512 512" width="512" xmlns="http://www.w3.org/2000/svg"><g><g><path d="m422.327 423.023c0-32.339 12.144-61.838 32.117-84.196 1.652-1.849.32-4.781-2.16-4.781h-306.483c-49.14 0-88.977 39.836-88.977 88.977 0 49.141 39.836 88.977 88.977 88.977h306.483c2.479 0 3.811-2.932 2.16-4.781-19.972-22.358-32.117-51.857-32.117-84.196z" fill="#eaeaea"/></g><g><path d="m454.431 507.204c-19.965-22.356-32.104-51.849-32.104-84.181s12.139-61.825 32.104-84.181c1.658-1.857.342-4.796-2.146-4.796h-57.087c2.489 0 3.805 2.939 2.147 4.796-19.965 22.356-32.104 51.849-32.104 84.181 0 32.331 12.139 61.825 32.104 84.181 1.658 1.857.343 4.796-2.146 4.796h57.086c2.489 0 3.804-2.939 2.146-4.796z" fill="#c6d0da"/></g><g><g><g><path d="m206.962 482.563-28.849-21.098-28.849 21.098c-2.695 1.971-6.487.046-6.487-3.293v-94.186h70.672v94.186c.001 3.339-3.791 5.264-6.487 3.293z" fill="#c73044"/></g></g><g><g><path d="m178.114 385.085v76.38l28.849 21.098c2.695 1.971 6.487.046 6.487-3.293v-94.186h-35.336z" fill="#952436"/></g></g></g><g><path d="m289.198 392.787h-166.036c-4.254 0-7.702-3.448-7.702-7.702s3.448-7.702 7.702-7.702h166.036c4.254 0 7.702 3.448 7.702 7.702s-3.448 7.702-7.702 7.702z" fill="#c6d0da"/></g><g><g><path d="m145.802 334.046h309.373v-318.641c0-8.508-6.897-15.405-15.404-15.405h-294.627c-48.777 0-88.319 39.542-88.319 88.319v334.704c0-49.14 39.836-88.977 88.977-88.977z" fill="#465961"/></g><g><path d="m56.825 423.023v3.676h.081c-.049-1.219-.081-2.444-.081-3.676z" fill="#465961"/></g></g><g><g><path d="m439.77 0h-51.207v223.847c0 24.073-19.515 43.587-43.587 43.587h-215.305c-30.124 0-56.749 14.973-72.846 37.881v117.708c0-49.14 39.836-88.977 88.977-88.977h309.373v-318.641c0-8.508-6.897-15.405-15.405-15.405z" fill="#394949"/></g></g><g><path d="m374.097 425.659h-97.048c-4.254 0-7.702-3.448-7.702-7.702s3.448-7.702 7.702-7.702h97.048c4.254 0 7.702 3.448 7.702 7.702s-3.447 7.702-7.702 7.702z" fill="#c6d0da"/></g><g><path d="m151.236 0h15.405v334.046h-15.405z" fill="#567981"/></g><g fill="#f6e738"><path d="m239.259 128.373c-.026-.07-.054-.141-.083-.212-1.495-3.635-4.999-5.981-8.929-5.981-.004 0-.008 0-.011 0-3.934.005-7.439 2.361-8.927 6.002-.023.057-.046.115-.068.174l-32.362 84.971c-1.514 3.974.481 8.424 4.457 9.939 3.97 1.514 8.424-.48 9.939-4.457l6.17-16.201h41.365l6.106 16.18c1.163 3.084 4.095 4.984 7.207 4.984.904 0 1.823-.16 2.719-.498 3.98-1.501 5.988-5.945 4.486-9.926zm-23.948 58.831 14.91-39.149 14.775 39.149z"/><path d="m406.968 208.366h-48.145l51.948-75.325c1.626-2.356 1.809-5.42.479-7.953-1.331-2.534-3.957-4.122-6.82-4.122h-58.689c-4.254 0-7.702 3.448-7.702 7.702s3.448 7.702 7.702 7.702h44.021l-51.948 75.325c-1.626 2.356-1.809 5.42-.479 7.953 1.331 2.534 3.957 4.122 6.82 4.122h62.814c4.254 0 7.702-3.448 7.702-7.702-.001-4.254-3.449-7.702-7.703-7.702z"/><path d="m318.422 158.642h-28.482c-4.254 0-7.702 3.448-7.702 7.702s3.448 7.702 7.702 7.702h28.482c4.254 0 7.702-3.448 7.702-7.702s-3.447-7.702-7.702-7.702z"/></g></g></svg>