<svg height="512pt" viewBox="-11 0 512 512" width="512pt" xmlns="http://www.w3.org/2000/svg"><path d="m306.855469 112.484375h-113.390625v-98.570313h113.390625l-25.164063 49.285157zm0 0" fill="#f94141"/><path d="m193.464844 195.988281c-4.339844 0-7.863282-3.523437-7.863282-7.863281v-180.261719c0-4.34375 3.523438-7.863281 7.863282-7.863281 4.34375 0 7.867187 3.519531 7.867187 7.863281v180.261719c0 4.339844-3.523437 7.863281-7.867187 7.863281zm0 0" fill="#40404c"/><path d="m344.367188 512h-301.800782c-32.714844 0-53.171875-35.421875-36.804687-63.765625l102.699219-177.886719 55.617187-96.332031c13.066406-22.621094 45.710937-22.621094 58.777344 0l55.617187 96.332031 102.699219 177.886719c16.367187 28.34375-4.089844 63.765625-36.804687 63.765625zm0 0" fill="#5b5b68"/><path d="m193.460938 157.046875c-4.960938 0-9.917969 5.664063-12.761719 16.96875l-24.148438 96.332031-44.609375 177.886719c-7.109375 28.34375 1.773438 63.765625 15.984375 63.765625h-85.359375c-32.714844 0-53.171875-35.421875-36.804687-63.765625l102.699219-177.886719 55.617187-96.332031c6.535156-11.304687 17.964844-16.96875 29.382813-16.96875zm0 0" fill="#40404c"/><path d="m263.203125 288.605469-28.984375-10.445313-14.898438 19.945313c-12.910156 17.269531-38.796874 17.269531-51.707031 0l-13.496093-18.058594-1.40625-1.886719-28.980469 10.445313c-11.117188 4.003906-21.171875-8.023438-15.269531-18.257813l55.617187-96.335937c6.535156-11.300781 17.964844-16.964844 29.382813-16.964844 11.429687 0 22.859374 5.664063 29.394531 16.964844l55.617187 96.335937c5.902344 10.234375-4.152344 22.261719-15.269531 18.257813zm0 0" fill="#e4e4ef"/><path d="m193.460938 157.046875c-4.960938 0-9.917969 5.664063-12.761719 16.96875l-24.148438 96.332031-2.433593 9.703125-1.40625-1.890625-28.980469 10.445313c-11.117188 4.007812-21.171875-8.023438-15.269531-18.257813l55.617187-96.332031c6.535156-11.304687 17.964844-16.96875 29.382813-16.96875zm0 0" fill="#cacadb"/><path d="m463.296875 512h-191.925781c-20.8125 0-33.816406-22.523438-23.414063-40.550781l65.308594-113.113281c0-.007813.007813-.007813.007813-.019532l35.371093-61.257812c8.304688-14.386719 29.078125-14.386719 37.382813 0l35.367187 61.257812c0 .011719.011719.011719.011719.019532l65.308594 113.113281c10.402344 18.027343-2.601563 40.550781-23.417969 40.550781zm0 0" fill="#5b5b68"/><path d="m366.972656 286.277344c-3.792968.222656-7.550781 3.808594-9.71875 10.78125l-19.097656 61.257812v.019532l-35.253906 113.113281c-5.609375 18.027343 1.40625 40.550781 12.648437 40.550781h-44.179687c-20.8125 0-33.816406-22.523438-23.414063-40.550781l65.308594-113.113281c0-.007813.007813-.007813.007813-.019532l35.371093-61.257812c4.078125-7.070313 11.175781-10.667969 18.328125-10.78125zm0 0" fill="#40404c"/><path d="m411.6875 369.933594-18.4375-6.648438-14.238281 19.066406c-5.832031 7.789063-17.523438 7.789063-23.351563 0l-14.242187-19.066406-5.410157 1.953125-13.023437 4.695313c-7.054687 2.539062-13.453125-5.085938-9.71875-11.597656 0-.007813.007813-.007813.007813-.019532l35.371093-61.261718c4.066407-7.035157 11.113281-10.632813 18.234375-10.777344h.09375c7.382813-.125 14.828125 3.460937 19.054688 10.777344l35.367187 61.261718c0 .011719.011719.011719.011719.019532 3.734375 6.515624-2.664062 14.136718-9.71875 11.597656zm0 0" fill="#e4e4ef"/><path d="m366.933594 286.277344c-3.789063.253906-7.519532 3.828125-9.679688 10.78125l-19.097656 61.257812v.019532l-2.148438 6.902343-13.023437 4.695313c-7.054687 2.539062-13.453125-5.082032-9.71875-11.597656 0-.007813.007813-.007813.007813-.019532l35.371093-61.257812c4.066407-7.039063 11.113281-10.632813 18.234375-10.78125zm0 0" fill="#cacadb"/></svg>